<svg xmlns="http://www.w3.org/2000/svg" viewBox="0 0 220.58 60.26"><defs><style>.cls-1{fill:#ff8a00;}.cls-2{fill:#ff0;}.cls-3{fill:#191923;}</style></defs><g id="Layer_2" data-name="Layer 2"><g id="Layer_1-2" data-name="Layer 1"><circle class="cls-1" cx="30" cy="30" r="30"/><circle class="cls-2" cx="30" cy="37.32" r="22.68"/><circle class="cls-3" cx="30" cy="44.66" r="15.6"/><path class="cls-1" d="M91.81,40.55a6.35,6.35,0,0,1-2.63,2.52,8.86,8.86,0,0,1-4.35,1,10.45,10.45,0,0,1-4.48-.92,8,8,0,0,1-3.14-2.52A7.15,7.15,0,0,1,75.86,37h3.5a4.91,4.91,0,0,0,2.53,3.8,5.59,5.59,0,0,0,2.83.67A4.51,4.51,0,0,0,88,40.27a4,4,0,0,0,1.15-3,3.81,3.81,0,0,0-.81-2.52,5.93,5.93,0,0,0-2-1.53,28.41,28.41,0,0,0-3.24-1.2,32.37,32.37,0,0,1-3.87-1.5,6.57,6.57,0,0,1-2.49-2.1,6.18,6.18,0,0,1-1-3.71,6.37,6.37,0,0,1,.95-3.49,6.25,6.25,0,0,1,2.74-2.34,9.85,9.85,0,0,1,4.19-.83,9,9,0,0,1,5.94,1.82,7,7,0,0,1,2.56,4.62H88.61a4.79,4.79,0,0,0-1.55-2.66,4.86,4.86,0,0,0-3.42-1.15,4.7,4.7,0,0,0-3.17,1,3.65,3.65,0,0,0-1.19,2.9,3.59,3.59,0,0,0,.78,2.4A5.43,5.43,0,0,0,82,28.48c.77.34,1.83.73,3.17,1.17a30.63,30.63,0,0,1,3.94,1.51,6.26,6.26,0,0,1,3.59,6.05A6.69,6.69,0,0,1,91.81,40.55Z"/><path class="cls-1" d="M110.05,25.22a7.51,7.51,0,0,1,2.79,3.85V24h3.27V43.79h-3.27v-5a7.54,7.54,0,0,1-2.79,3.86,8.14,8.14,0,0,1-4.88,1.44,8.93,8.93,0,0,1-4.68-1.23,8.31,8.31,0,0,1-3.22-3.51,11.66,11.66,0,0,1-1.17-5.38,11.8,11.8,0,0,1,1.17-5.4A8.37,8.37,0,0,1,100.49,25a9,9,0,0,1,4.68-1.22A8.14,8.14,0,0,1,110.05,25.22Zm-8.79,3.4a7.44,7.44,0,0,0-1.82,5.31,7.42,7.42,0,0,0,1.82,5.31,6.36,6.36,0,0,0,4.84,1.93,6.73,6.73,0,0,0,3.48-.9A6.23,6.23,0,0,0,112,37.73a8,8,0,0,0,.87-3.8,8.12,8.12,0,0,0-.87-3.82,6,6,0,0,0-2.39-2.53,6.83,6.83,0,0,0-3.48-.89A6.36,6.36,0,0,0,101.26,28.62Z"/><path class="cls-1" d="M137.32,25.92a8.91,8.91,0,0,1,2.12,6.39V43.79h-3.28V32.6a6.32,6.32,0,0,0-1.51-4.54,5.43,5.43,0,0,0-4.1-1.58,5.62,5.62,0,0,0-4.32,1.74,7.26,7.26,0,0,0-1.62,5.1V43.79h-3.28V24h3.28v4.68A6.75,6.75,0,0,1,127.29,25a7.81,7.81,0,0,1,4.45-1.29A7.37,7.37,0,0,1,137.32,25.92Z"/><path class="cls-1" d="M156.05,25.52a7.36,7.36,0,0,1,2.47,4.7h-3.13a4.59,4.59,0,0,0-1.46-2.9,4.78,4.78,0,0,0-3.33-1.13,4.06,4.06,0,0,0-2.75.85,2.83,2.83,0,0,0-1,2.28,2.39,2.39,0,0,0,.66,1.75,4.34,4.34,0,0,0,1.66,1,25.84,25.84,0,0,0,2.72.73,27,27,0,0,1,3.54,1,5.68,5.68,0,0,1,2.31,1.67,4.74,4.74,0,0,1,.95,3.1,4.85,4.85,0,0,1-1.82,3.92A7.31,7.31,0,0,1,152,44.05a9.27,9.27,0,0,1-5.76-1.7,6.75,6.75,0,0,1-2.63-4.71h3.17a4.09,4.09,0,0,0,1.57,2.91A5.6,5.6,0,0,0,152,41.67a3.84,3.84,0,0,0,2.65-.86,3,3,0,0,0,.95-2.27A2.48,2.48,0,0,0,155,36.7a4.44,4.44,0,0,0-1.69-1,25.52,25.52,0,0,0-2.77-.76,25.85,25.85,0,0,1-3.51-1,5.36,5.36,0,0,1-2.23-1.6,4.49,4.49,0,0,1-.92-3,5,5,0,0,1,1.84-4,7.56,7.56,0,0,1,5-1.53A8,8,0,0,1,156.05,25.52Z"/><path class="cls-1" d="M173.93,43.79l-7.56-8.89v8.89h-3.28V17.15h3.28V32.63l7.45-8.6h4L169,33.86,178,43.79Z"/><path class="cls-1" d="M187,24.84a8.42,8.42,0,0,1,4.46-1.13v3.56h-1A7,7,0,0,0,186,28.69c-1.18.95-1.76,2.52-1.76,4.7v10.4h-3.28V24h3.28v4A7.22,7.22,0,0,1,187,24.84Z"/><path class="cls-1" d="M194.77,16.78a2.62,2.62,0,0,1,3.24,0,2,2,0,0,1,0,2.91,2.62,2.62,0,0,1-3.24,0,2,2,0,0,1,0-2.91ZM198,24V43.79h-3.28V24Z"/><path class="cls-1" d="M212.7,40.91v2.88h-2.45a6.29,6.29,0,0,1-4.52-1.44q-1.48-1.43-1.49-4.82V26.87h-3V24h3V19.1h3.31V24h5.11v2.84h-5.11V37.6a3.69,3.69,0,0,0,.7,2.61,3.38,3.38,0,0,0,2.43.7Z"/><path class="cls-1" d="M216.73,16.78a2.62,2.62,0,0,1,3.24,0,2,2,0,0,1,0,2.91,2.62,2.62,0,0,1-3.24,0,2,2,0,0,1,0-2.91ZM220,24V43.79h-3.28V24Z"/></g></g></svg>